<svg xmlns="http://www.w3.org/2000/svg" width="134.246" height="133.795" viewBox="0 0 134.246 133.795"><g transform="translate(-1.977 -2)"><path d="M78.021,44.022A25.276,25.276,0,0,1,55.53,47.243a2.237,2.237,0,0,0-2.047.284L43.418,54.665l2.59,3.648,9.133-6.487a29.9,29.9,0,0,0,25.376-4.1,31.741,31.741,0,0,0,3.738-2.957l-3.033-3.288a26.954,26.954,0,0,1-3.2,2.541Z" transform="translate(51.253 48.829)"/><path d="M106.75,29.783a20.339,20.339,0,0,0-9.262,19.4L69.132,67.356,40.772,49.191A20.247,20.247,0,0,0,31.5,29.8a21.386,21.386,0,0,0-14.584-3.637A16.552,16.552,0,0,0,2.65,47.308a21.37,21.37,0,0,0,8.838,12.15,20.243,20.243,0,0,0,21.473,1.326L54.973,76.413,34.026,89.845a8.777,8.777,0,1,0,9.8,14.555l25.3-17.943,25.3,17.957a8.791,8.791,0,1,0,9.815-14.57L83.277,76.422,105.3,60.787a20.243,20.243,0,0,0,21.473-1.322c9.193-6.2,12.195-17.912,6.686-26.1s-17.5-9.788-26.714-3.583ZM41.239,100.76a4.415,4.415,0,0,1-6.066-1.107,4.3,4.3,0,0,1,1.255-6.039L58.905,79.2l6.35,4.5Zm62.5-4.391a4.317,4.317,0,0,1-6.724,4.4L34.294,56.253a2.237,2.237,0,0,0-2.613.018,15.5,15.5,0,0,1-17.693-.521,16.915,16.915,0,0,1-7.015-9.6A12.079,12.079,0,0,1,17.487,30.588,16.917,16.917,0,0,1,29.011,33.5a15.5,15.5,0,0,1,7.1,16.21,2.237,2.237,0,0,0,.962,2.431l64.764,41.474A4.277,4.277,0,0,1,103.735,96.369Zm20.534-40.624a15.5,15.5,0,0,1-17.7.517,2.237,2.237,0,0,0-2.613-.018L79.215,73.811l-5.932-3.8,27.9-17.894a2.237,2.237,0,0,0,.962-2.427,15.579,15.579,0,0,1,7.108-16.21c7.158-4.825,16.36-3.76,20.5,2.367s1.673,15.076-5.482,19.9Z" transform="translate(0 29.687)"/><path d="M21.495,5.893,19.019,2.167A29.078,29.078,0,0,0,7.663,36.092L11.879,34.6A24.6,24.6,0,0,1,21.5,5.893Z" transform="translate(4.975 0.206)"/><path d="M14.467,22.455a24.884,24.884,0,0,1-2.85-3.955L7.745,20.737a29.335,29.335,0,0,0,3.366,4.675Z" transform="translate(7.134 20.407)"/><path d="M83.77,78.5l6.368-31.838a20.131,20.131,0,0,0-1.85-40.186A19.88,19.88,0,0,0,75.834,10.8a20.1,20.1,0,0,0-33.247,0A19.88,19.88,0,0,0,30.132,6.473a20.131,20.131,0,0,0-1.85,40.177L34.651,78.5l4.384-.877L37.782,71.34H80.639L79.386,77.6Zm-10.8-11.631,1.872-13.1-4.429-.635L68.455,66.866H61.447v-24.6H56.974v24.6H49.966L48,53.128l-4.429.635,1.872,13.1h-8.56L32.324,44.051a2.237,2.237,0,0,0-2.192-1.789A15.657,15.657,0,1,1,41.5,15.868a2.237,2.237,0,0,0,3.637-.559,15.626,15.626,0,0,1,28.143,0,2.237,2.237,0,0,0,3.637.559,15.649,15.649,0,1,1,11.37,26.394,2.237,2.237,0,0,0-2.192,1.79L81.533,66.866Z" transform="translate(9.921 0)"/></g></svg>