<svg xmlns="http://www.w3.org/2000/svg" width="40" height="40" viewBox="0 0 40 40"><defs><style>.a{fill:none;}.b{fill:#fff;}</style></defs><path class="a" d="M0,0H40V40H0Z"/><path class="b" d="M20.557,8.147a3.333,3.333,0,1,0-3.333-3.333A3.343,3.343,0,0,0,20.557,8.147Zm-6,23.167,1.667-7.333,3.5,3.333v10h3.333v-12.5l-3.5-3.333,1-5a12.2,12.2,0,0,0,9.167,4.167V17.313a8.2,8.2,0,0,1-7.167-4L20.89,10.647A3.437,3.437,0,0,0,18.057,8.98c-.5,0-.833.167-1.333.167L8.057,12.813v7.833H11.39V14.98l3-1.167-2.667,13.5L3.557,25.647,2.89,28.98Z" transform="translate(1.927 0.987)"/></svg>