<svg xmlns="http://www.w3.org/2000/svg" width="40" height="40" viewBox="0 0 40 40"><defs><style>.a{fill:none;}.b{fill:#fff;}</style></defs><path class="a" d="M0,0H40V40H0Z"/><path class="b" d="M35.426,25.148,38,22.574,35.426,20,29,26.426,13.574,11,20,4.574,17.426,2,14.852,4.574,12.278,2,8.426,5.852,5.852,3.278,3.278,5.852,5.852,8.426,2,12.278l2.574,2.574L2,17.426,4.574,20,11,13.574,26.426,29,20,35.426,22.574,38l2.574-2.574L27.722,38l3.852-3.852,2.574,2.574,2.574-2.574-2.574-2.574L38,27.722Z" transform="translate(0 0)"/></svg>